<svg xmlns="http://www.w3.org/2000/svg" width="520" height="920" viewBox="0 0 520 920">
  <defs>
    <linearGradient id="hair" x1="0" y1="0" x2="1" y2="1">
      <stop offset="0" stop-color="#2b2f55" />
      <stop offset="1" stop-color="#1d1f39" />
    </linearGradient>
    <linearGradient id="dress" x1="0" y1="0" x2="0" y2="1">
      <stop offset="0" stop-color="#7aa2f7" />
      <stop offset="1" stop-color="#3b63d6" />
    </linearGradient>
  </defs>
  <rect width="520" height="920" fill="rgba(0,0,0,0)" />
  <!-- hair -->
  <path d="M110 260 C110 120 410 120 410 260 C410 460 380 520 360 600 C330 720 190 720 160 600 C140 520 110 460 110 260 Z" fill="url(#hair)" />
  <!-- face -->
  <ellipse cx="260" cy="300" rx="110" ry="130" fill="#f7d7c4" />
  <!-- eyes -->
  <ellipse cx="220" cy="300" rx="18" ry="12" fill="#111" />
  <ellipse cx="300" cy="300" rx="18" ry="12" fill="#111" />
  <circle cx="214" cy="296" r="4" fill="#fff" />
  <circle cx="294" cy="296" r="4" fill="#fff" />
  <!-- mouth -->
  <path d="M230 350 C250 368 270 368 290 350" stroke="#b55" stroke-width="6" fill="none" stroke-linecap="round" />
  <!-- dress -->
  <path d="M150 430 C190 400 330 400 370 430 C420 470 440 560 420 660 C400 820 120 820 100 660 C80 560 100 470 150 430 Z" fill="url(#dress)" />
  <text x="260" y="880" text-anchor="middle" fill="rgba(255,255,255,0.85)" font-family="sans-serif" font-size="26">HEROINE (SVG)</text>
</svg>

